# xmcd
#
# Track frame offsets: 
#        187
#        11545
#        21595
#        31470
#        43602
#        56385
#        67200
#        80727
#        92475
#        105620
#        118727
#        132717
#        144327
#        157280
#        168625
#        181647
#        193082
#        203177
#        216342
#        227495
#
# Disc length: 3180 seconds
#
# Revision: 1
# Processed by: cddbd v1.5.1PL0 Copyright (c) Steve Scherf et al.
# Submitted via: ExactAudioCopy v0.95a5
#
DISCID=270c6a14
DTITLE=The Sons of the Pioneers - Down Memory Trail [CD 1 of 4)
DYEAR=2002
DGENRE=Country
TTITLE0=Tumbling Tumbleweeds
TTITLE1=San Antonio Rose
TTITLE2=Cool Water
TTITLE3=Mexicali Rose
TTITLE4=Have I Told You Lately That I Love You?
TTITLE5=(Ghost) Riders In The Sky
TTITLE6=The Everlasting Hills Of Oklahoma
TTITLE7=I Still Do
TTITLE8=Cigareetes, Whusky, And Wild, Wild Women
TTITLE9=Blue Prairie
TTITLE10=Room Full Of Roses
TTITLE11=Starts And Stripes On Iwo Jima
TTITLE12=South of The Border (Down Mexico Way)
TTITLE13=Love Me With All Your Heart
TTITLE14=Maria Elena
TTITLE15=You Belong To My Heart
TTITLE16=My Adobe Hacienda
TTITLE17=Spanish Eyes
TTITLE18=Harbor Lights
TTITLE19=Blue Hawaii
EXTD=SSFLM00883-1\nXCD4-5781
EXTT0=
EXTT1=
EXTT2=
EXTT3=
EXTT4=
EXTT5=
EXTT6=
EXTT7=
EXTT8=
EXTT9=
EXTT10=
EXTT11=
EXTT12=
EXTT13=
EXTT14=
EXTT15=
EXTT16=
EXTT17=
EXTT18=
EXTT19=
PLAYORDER=
